# 3ds Max Wavefront OBJ Exporter v0.97b - (c)2007 guruware
# File Created: 16.09.2018 10:52:20

#
# object Level6
#

v  0.2638 -0.8991 -0.8113
v  -0.2634 -0.8991 -0.8113
v  -0.2073 -0.6784 -0.6386
v  0.2370 -0.7936 -0.7288
v  -0.6899 -0.8991 -0.5014
v  -0.8528 -0.8991 -0.0000
v  -0.6863 -0.6967 -0.0000
v  -0.5441 -0.5238 -0.0000
v  -0.5634 -0.7090 -0.4095
v  -0.5008 -0.6149 -0.3640
v  -0.1306 -0.3768 -0.4027
v  -0.2962 -0.3580 0.1535
v  -0.3542 -0.2929 -0.0000
v  0.6904 -0.8991 -0.5014
v  0.1919 -0.6162 -0.5900
v  0.6158 -0.7871 -0.4473
v  -0.8514 0.0500 0.0497
v  -0.6595 0.0500 0.5408
v  -0.5191 0.2707 0.4257
v  -0.7648 0.1555 0.0447
v  -0.0978 0.9329 0.0804
v  -0.0390 0.8986 0.1500
v  0.0002 1.0870 -0.0000
v  0.2516 0.7809 -0.0147
v  0.1254 0.8903 -0.1026
v  -0.0776 -0.1682 0.2395
v  -0.1637 -0.5069 0.5045
v  -0.1316 -0.3806 0.4057
v  -0.0221 0.0500 -0.0687
v  -0.0390 -0.0163 -0.1206
v  -0.1252 -0.0505 -0.0911
v  -0.0583 0.0500 -0.0425
v  -0.7180 0.0500 -0.4603
v  -0.6191 0.3329 0.0362
v  -0.6404 0.1620 -0.4106
v  -0.2061 -0.6739 0.6352
v  0.1320 -0.3806 0.4057
v  -0.2634 -0.8991 0.8113
v  0.2638 -0.8991 0.8113
v  -0.2140 -0.1225 -0.0000
v  -0.2533 -0.2430 -0.1842
v  0.1631 -0.5026 -0.5011
v  0.2994 -0.3116 -0.2174
v  0.4316 -0.5102 -0.3134
v  0.0502 -0.0588 0.1539
v  -0.0221 0.0500 0.0687
v  0.0226 0.0500 0.0687
v  0.0647 0.7774 -0.2464
v  -0.4486 0.4389 -0.2877
v  -0.3111 0.6375 -0.1995
v  -0.5258 0.4465 0.0307
v  -0.2674 0.7611 0.0156
v  0.0587 0.0500 -0.0425
v  0.0831 -0.1880 -0.2550
v  0.0226 0.0500 -0.0687
v  -0.0721 0.0500 -0.0000
v  0.1713 0.2653 -0.6539
v  0.8518 0.0500 -0.0497
v  0.6600 0.0500 -0.5408
v  0.3301 0.5685 -0.2704
v  0.6669 0.2752 -0.0389
v  -0.0841 -0.1938 -0.2595
v  -0.2108 0.7553 0.1730
v  0.4260 0.5685 -0.0249
v  0.5298 0.4422 -0.0309
v  0.0587 0.0500 0.0425
v  0.2063 -0.1717 0.1497
v  0.2511 0.5911 0.2203
v  -0.0791 0.7061 0.3032
v  0.0782 0.8266 0.1995
v  0.2501 0.2524 0.6395
v  0.1292 0.6562 0.3301
v  0.1983 0.4253 0.5070
v  0.5471 -0.6838 0.3973
v  0.2161 0.0500 -0.8253
v  0.6904 -0.8991 0.5014
v  -0.2156 0.0500 0.8253
v  0.3107 0.0500 0.7946
v  -0.1761 0.2401 0.6741
v  -0.1565 0.3342 0.5992
v  -0.3273 0.5723 0.2685
# 81 vertices

vn -0.2870 -0.3706 -0.8833
vn 0.6203 0.3785 -0.6869
vn -0.0633 0.6048 -0.7939
vn 0.2870 -0.3706 -0.8833
vn -0.7514 -0.3706 -0.5459
vn -0.9275 -0.3523 0.1253
vn -0.3902 0.3210 0.8629
vn -0.6089 0.5009 0.6151
vn -0.6923 0.1203 0.7115
vn -0.6923 0.1203 0.7115
vn -0.8236 0.2988 0.4821
vn 0.3329 0.5272 -0.7818
vn 0.6203 0.3785 -0.6869
vn -0.2870 -0.3706 -0.8833
vn -0.7514 -0.3706 -0.5459
vn -0.6089 0.5009 0.6151
vn -0.3902 0.3210 0.8629
vn -0.6735 0.5540 0.4893
vn -0.3902 0.3210 0.8629
vn 0.8240 -0.3523 -0.4437
vn 0.2870 -0.3706 -0.8833
vn -0.0633 0.6048 -0.7939
vn 0.0804 0.6268 -0.7750
vn 0.8410 0.3710 0.3938
vn -0.7183 -0.3706 0.5888
vn -0.2243 0.5589 0.7983
vn 0.1441 -0.0717 0.9870
vn -0.9272 -0.3706 0.0542
vn -0.0788 0.4979 0.8637
vn 0.1557 0.5941 0.7891
vn 0.0093 0.9999 -0.0077
vn 0.7719 0.6297 0.0875
vn 0.5972 0.6353 -0.4896
vn 0.0093 0.9999 -0.0077
vn -0.9874 0.1386 -0.0769
vn -0.3624 0.6297 0.6871
vn -0.6735 0.5540 0.4893
vn -0.8988 -0.1031 -0.4261
vn 0.1464 0.5869 -0.7963
vn -0.5089 0.6255 -0.5914
vn -0.6936 -0.5147 -0.5039
vn -0.1519 0.8708 -0.4676
vn -0.7132 -0.3523 -0.6060
vn -0.9272 -0.3706 0.0542
vn 0.1441 -0.0717 0.9870
vn -0.7504 0.6030 -0.2706
vn -0.8246 0.3950 0.4050
vn -0.8988 -0.1031 -0.4261
vn -0.3624 0.6297 0.6871
vn 0.2386 0.6353 0.7345
vn -0.9874 0.1386 -0.0769
vn 0.2870 -0.3706 0.8833
vn 0.2386 0.6353 0.7345
vn -0.3624 0.6297 0.6871
vn -0.4058 -0.3523 0.8433
vn -0.3902 0.3210 0.8629
vn -0.7655 0.6297 0.1323
vn -0.7854 0.5985 -0.1580
vn -0.8236 0.2988 0.4821
vn -0.6923 0.1203 0.7115
vn -0.6089 0.5009 0.6151
vn 0.0804 0.6268 -0.7750
vn 0.9648 0.0390 0.2599
vn -0.2745 0.2588 -0.9261
vn -0.0363 0.4110 -0.9109
vn 0.8410 0.3710 0.3938
vn 0.2386 0.6353 0.7345
vn 0.2386 0.6353 0.7345
vn -0.3624 0.6297 0.6871
vn -0.9874 0.1386 -0.0769
vn -0.3984 -0.5791 0.7113
vn -0.3624 0.6297 0.6871
vn 0.2386 0.6353 0.7345
vn 0.2649 -0.5147 0.8154
vn -0.5730 0.6297 -0.5245
vn 0.0093 0.9999 -0.0077
vn 0.0657 0.6297 -0.7740
vn -0.5730 0.6297 -0.5245
vn -0.7338 0.5866 -0.3427
vn 0.0093 0.9999 -0.0077
vn -0.5730 0.6297 -0.5245
vn 0.0841 -0.1194 -0.9893
vn -0.9275 -0.3523 0.1253
vn -0.4058 -0.3523 0.8433
vn -0.3624 0.6297 0.6871
vn -0.8988 -0.1031 -0.4261
vn -0.6735 0.5540 0.4893
vn -0.3902 0.3210 0.8629
vn 0.7404 -0.5791 -0.3412
vn -0.2745 0.2588 -0.9261
vn 0.9648 0.0390 0.2599
vn -0.4194 0.4916 -0.7631
vn 0.1519 0.8708 -0.4676
vn -0.7504 0.6030 -0.2706
vn 0.0841 -0.1194 -0.9893
vn -0.5730 0.6297 -0.5245
vn -0.5730 0.6297 -0.5245
vn -0.8246 0.3950 0.4050
vn -0.5089 0.6255 -0.5914
vn -0.7854 0.5985 -0.1580
vn -0.7655 0.6297 0.1323
vn -0.5143 0.8515 0.1024
vn -0.6936 -0.5147 -0.5039
vn 0.0657 0.6297 -0.7740
vn 0.0093 0.9999 -0.0077
vn 0.5972 0.6353 -0.4896
vn 0.7064 0.5251 -0.4746
vn 0.7183 -0.3706 -0.5888
vn 0.5943 0.6368 -0.4913
vn -0.0985 -0.0331 -0.9946
vn 0.9332 -0.3523 0.0711
vn 0.1519 0.8708 -0.4676
vn -0.4194 0.4916 -0.7631
vn 0.8100 0.2193 -0.5438
vn 0.1464 0.5869 -0.7963
vn -0.1519 0.8708 -0.4676
vn -0.7854 0.5985 -0.1580
vn -0.5089 0.6255 -0.5914
vn 0.1464 0.5869 -0.7963
vn 0.8100 0.2193 -0.5438
vn 0.3329 0.5272 -0.7818
vn -0.8236 0.2988 0.4821
vn -0.0788 0.4979 0.8637
vn 0.0093 0.9999 -0.0077
vn -0.7338 0.5866 -0.3427
vn 0.2070 0.3427 0.9163
vn 0.3329 0.5272 -0.7818
vn 0.8100 0.2193 -0.5438
vn -0.4194 0.4916 -0.7631
vn 0.9648 0.0390 0.2599
vn 0.0804 0.6268 -0.7750
vn -0.0633 0.6048 -0.7939
vn 0.6203 0.3785 -0.6869
vn 0.0987 0.0330 0.9946
vn -0.0985 -0.0331 -0.9946
vn 0.5943 0.6368 -0.4913
vn 0.7692 0.6258 0.1292
vn 0.5943 0.6368 -0.4913
vn 0.5972 0.6353 -0.4896
vn 0.7719 0.6297 0.0875
vn 0.7692 0.6258 0.1292
vn 0.7404 -0.5791 0.3412
vn 0.4086 0.6039 0.6843
vn -0.0363 0.4110 -0.9109
vn -0.2745 0.2588 -0.9261
vn 0.7404 -0.5791 -0.3412
vn 0.7692 0.6258 0.1292
vn 0.7719 0.6297 0.0875
vn 0.7009 0.5540 0.4492
vn 0.0987 0.0330 0.9946
vn 0.1557 0.5941 0.7891
vn 0.5270 0.4602 0.7145
vn -0.3515 0.5006 0.7911
vn 0.0093 0.9999 -0.0077
vn -0.8334 0.1564 0.5302
vn -0.4243 0.4671 0.7757
vn 0.7009 0.5540 0.4492
vn 0.7051 -0.3520 -0.6156
vn 0.2649 -0.5147 0.8154
vn 0.2386 0.6353 0.7345
vn 0.2143 0.5356 0.8168
vn 0.4086 0.6039 0.6843
vn 0.7404 -0.5791 0.3412
vn 0.7064 0.5251 -0.4746
vn 0.1134 -0.3523 -0.9290
vn -0.7132 -0.3523 -0.6060
vn -0.8246 0.3950 0.4050
vn -0.5730 0.6297 -0.5245
vn 0.0657 0.6297 -0.7740
vn 0.1134 -0.3523 -0.9290
vn 0.7064 0.5251 -0.4746
vn 0.5972 0.6353 -0.4896
vn 0.5943 0.6368 -0.4913
vn 0.7183 -0.3706 -0.5888
vn 0.8240 -0.3523 0.4437
vn 0.2143 0.5356 0.8168
vn 0.2386 0.6353 0.7345
vn 0.2386 0.6353 0.7345
vn 0.2870 -0.3706 0.8833
vn -0.7514 -0.3706 -0.5459
vn -0.2870 -0.3706 -0.8833
vn 0.2870 -0.3706 -0.8833
vn 0.8240 -0.3523 -0.4437
vn 0.8240 -0.3523 0.4437
vn 0.2870 -0.3706 0.8833
vn -0.4058 -0.3523 0.8433
vn -0.9275 -0.3523 0.1253
vn -0.7655 0.6297 0.1323
vn -0.3902 0.3210 0.8629
vn -0.6735 0.5540 0.4893
vn -0.3624 0.6297 0.6871
vn -0.3984 -0.5791 0.7113
vn -0.5143 0.8515 0.1024
vn 0.2143 0.5356 0.8168
vn 0.8240 -0.3523 0.4437
vn 0.8240 -0.3523 -0.4437
vn 0.8410 0.3710 0.3938
vn -0.0363 0.4110 -0.9109
vn 0.4086 0.6039 0.6843
vn -0.2350 -0.3706 0.8985
vn 0.4543 -0.3523 0.8182
vn -0.4243 0.4671 0.7757
vn -0.8334 0.1564 0.5302
vn -0.0574 0.6290 0.7753
vn -0.3515 0.5006 0.7911
vn 0.7051 -0.3520 -0.6156
vn 0.7009 0.5540 0.4492
vn 0.7719 0.6297 0.0875
vn 0.0093 0.9999 -0.0077
vn -0.0574 0.6290 0.7753
vn -0.2824 0.6326 0.7212
vn 0.2843 0.2976 0.9114
vn -0.2243 0.5589 0.7983
vn -0.7183 -0.3706 0.5888
vn -0.2350 -0.3706 0.8985
vn 0.5270 0.4602 0.7145
vn 0.1557 0.5941 0.7891
vn -0.0788 0.4979 0.8637
vn 0.2070 0.3427 0.9163
vn 0.2843 0.2976 0.9114
vn -0.2824 0.6326 0.7212
vn 0.2843 0.2976 0.9114
vn 0.2070 0.3427 0.9163
vn -0.7338 0.5866 -0.3427
vn 0.0841 -0.1194 -0.9893
vn -0.7504 0.6030 -0.2706
vn 0.1441 -0.0717 0.9870
vn -0.2243 0.5589 0.7983
vn 0.7051 -0.3520 -0.6156
vn -0.3515 0.5006 0.7911
vn 0.5270 0.4602 0.7145
vn -0.2824 0.6326 0.7212
vn -0.0574 0.6290 0.7753
vn -0.8334 0.1564 0.5302
vn 0.4543 -0.3523 0.8182
vn 0.9332 -0.3523 0.0711
vn -0.0985 -0.0331 -0.9946
vn 0.0987 0.0330 0.9946
vn 0.7009 0.5540 0.4492
vn -0.4243 0.4671 0.7757
vn 0.9332 -0.3523 0.0711
vn 0.7404 -0.5791 0.3412
vn 0.7404 -0.5791 -0.3412
vn 0.7183 -0.3706 -0.5888
vn 0.7404 -0.5791 0.3412
vn 0.9332 -0.3523 0.0711
vn 0.4543 -0.3523 0.8182
vn 0.2649 -0.5147 0.8154
vn 0.2649 -0.5147 0.8154
vn 0.4543 -0.3523 0.8182
vn -0.2350 -0.3706 0.8985
vn -0.3984 -0.5791 0.7113
vn 0.7183 -0.3706 -0.5888
vn 0.7404 -0.5791 -0.3412
vn 0.1519 0.8708 -0.4676
vn -0.1519 0.8708 -0.4676
vn -0.6936 -0.5147 -0.5039
vn -0.7132 -0.3523 -0.6060
vn 0.1134 -0.3523 -0.9290
vn -0.7132 -0.3523 -0.6060
vn -0.6936 -0.5147 -0.5039
vn -0.5143 0.8515 0.1024
vn -0.3984 -0.5791 0.7113
vn -0.2350 -0.3706 0.8985
vn -0.7183 -0.3706 0.5888
vn -0.9272 -0.3706 0.0542
# 266 vertex normals

vt 0.3000 0.5000 0.0000
vt 0.3500 0.5000 0.0000
vt 0.3819 0.6064 0.0000
vt 0.3203 0.5509 0.0000
vt 0.4000 0.5000 0.0000
vt 0.4500 0.5000 0.0000
vt 0.4598 0.5976 0.0000
vt 0.4681 0.6809 0.0000
vt 0.4183 0.5916 0.0000
vt 0.4274 0.6370 0.0000
vt 0.4255 0.7518 0.0000
vt 0.4950 0.7609 0.0000
vt 0.4792 0.7923 0.0000
vt 0.2500 0.5000 0.0000
vt 0.3546 0.6364 0.0000
vt 0.2770 0.5540 0.0000
vt 0.3000 0.5000 0.0000
vt 0.3500 0.5000 0.0000
vt 0.3819 0.6064 0.0000
vt 0.3203 0.5509 0.0000
vt 0.4777 0.9257 0.0000
vt 0.4818 0.9091 0.0000
vt 0.5000 1.0000 0.0000
vt 0.5148 0.8524 0.0000
vt 0.5190 0.9052 0.0000
vt 0.5148 0.8524 0.0000
vt 0.5311 0.6891 0.0000
vt 0.5250 0.7500 0.0000
vt 0.4873 0.9576 0.0000
vt 0.4777 0.9257 0.0000
vt 0.4818 0.9091 0.0000
vt 0.4915 0.9576 0.0000
vt 0.2500 0.5000 0.0000
vt 0.3546 0.6364 0.0000
vt 0.2770 0.5540 0.0000
vt 0.5391 0.6086 0.0000
vt 0.5500 0.7500 0.0000
vt 0.5500 0.5000 0.0000
vt 0.6000 0.5000 0.0000
vt 0.4874 0.8744 0.0000
vt 0.4633 0.8163 0.0000
vt 0.3765 0.6912 0.0000
vt 0.3916 0.7833 0.0000
vt 0.3438 0.6875 0.0000
vt 0.5190 0.9052 0.0000
vt 0.5042 0.9576 0.0000
vt 0.5085 0.9576 0.0000
vt 0.5448 0.8507 0.0000
vt 0.6562 0.6875 0.0000
vt 0.6084 0.7833 0.0000
vt 0.3916 0.7833 0.0000
vt 0.3765 0.6912 0.0000
vt 0.4371 0.8429 0.0000
vt 0.4788 0.9576 0.0000
vt 0.4371 0.8429 0.0000
vt 0.4831 0.9576 0.0000
vt 0.3438 0.6875 0.0000
vt 0.4958 0.9576 0.0000
vt 0.6189 0.6038 0.0000
vt 0.5500 0.5000 0.0000
vt 0.6000 0.5000 0.0000
vt 0.5500 0.7500 0.0000
vt 0.5391 0.6086 0.0000
vt 0.4520 0.8401 0.0000
vt 0.4520 0.8401 0.0000
vt 0.5250 0.7500 0.0000
vt 0.5311 0.6891 0.0000
vt 0.5127 0.9576 0.0000
vt 0.5448 0.8507 0.0000
vt 0.6562 0.6875 0.0000
vt 0.6084 0.7833 0.0000
vt 0.5212 0.9576 0.0000
vt 0.4950 0.7609 0.0000
vt 0.4633 0.8163 0.0000
vt 0.4874 0.8744 0.0000
vt 0.4598 0.5976 0.0000
vt 0.4792 0.7923 0.0000
vt 0.4681 0.6809 0.0000
vt 0.6189 0.6038 0.0000
vt 0.6500 0.5000 0.0000
vt 0.7500 0.5000 0.0000
vt 0.7230 0.5540 0.0000
vt 0.6500 0.5000 0.0000
vt 0.7023 0.1031 0.0000
vt 0.7023 0.3969 0.0000
vt 0.5773 0.4878 0.0000
vt 0.4227 0.4878 0.0000
vt 0.2500 0.2500 0.0000
vt 0.2977 0.1031 0.0000
vt 0.4227 0.0122 0.0000
vt 0.5773 0.0122 0.0000
vt 0.7500 0.5000 0.0000
vt 0.7230 0.5540 0.0000
vt 0.4000 0.5000 0.0000
vt 0.4500 0.5000 0.0000
vt 0.4183 0.5916 0.0000
vt 0.4274 0.6370 0.0000
vt 0.4255 0.7518 0.0000
# 98 texture coords

o Level6
g Level6
s 1
f 2/2/1 3/3/2 4/4/3 1/1/4 
f 5/5/5 6/6/6 7/7/7 8/8/8 9/9/9 
f 9/9/10 10/10/11 11/11/12 3/3/13 2/2/14 5/5/15 
f 8/8/16 7/7/17 12/12/18 13/13/19 
f 14/14/20 1/1/21 4/4/22 15/15/23 16/16/24 
f 18/18/25 19/19/26 20/20/27 17/17/28 
f 21/21/29 22/22/30 23/23/31 
f 24/24/32 25/25/33 23/23/34 
f 28/28/35 26/26/36 12/12/37 27/27/38 
f 30/30/39 31/31/40 32/32/41 29/29/42 
f 33/33/43 17/17/44 20/20/45 34/34/46 35/35/47 
f 27/27/48 36/36/49 37/37/50 28/28/51 
f 39/39/52 37/37/53 36/36/54 38/38/55 
f 13/13/56 40/40/57 41/41/58 10/10/59 9/9/60 8/8/61 
f 15/15/62 42/42/63 43/43/64 44/44/65 16/16/66 
f 37/37/67 45/45/68 26/26/69 28/28/70 
f 46/46/71 26/26/72 45/45/73 47/47/74 
f 50/50/75 23/23/76 48/48/77 49/49/78 
f 52/53/79 23/23/80 50/51/81 51/52/82 
f 6/6/83 38/38/84 36/36/85 27/27/86 12/12/87 7/7/88 
f 53/54/89 43/43/90 42/42/91 54/55/92 55/56/93 
f 34/34/94 51/52/95 50/51/96 49/57/97 35/35/98 
f 31/31/99 41/41/100 40/40/101 56/58/102 32/32/103 
f 48/48/104 23/23/105 25/25/106 57/59/107 
f 59/61/108 60/62/109 61/63/110 58/60/111 
f 55/56/112 54/55/113 62/64/114 30/30/115 29/29/116 
f 41/41/117 31/31/118 30/30/119 62/64/120 11/11/121 10/10/122 
f 21/21/123 23/23/124 52/53/125 63/65/126 
f 11/11/127 62/64/128 54/55/129 42/42/130 15/15/131 4/4/132 3/3/133 
f 65/67/134 61/63/135 60/62/136 64/66/137 
f 60/62/138 25/25/139 24/24/140 64/66/141 
f 66/68/142 67/69/143 44/70/144 43/71/145 53/72/146 
f 64/66/147 24/24/148 68/73/149 65/67/150 
f 22/22/151 69/74/152 70/75/153 23/23/154 
f 73/78/155 71/76/156 68/73/157 72/77/158 
f 47/47/159 45/45/160 74/79/161 67/69/162 66/68/163 
f 57/59/164 75/80/165 33/81/166 35/82/167 49/49/168 48/48/169 
f 75/80/170 57/59/171 25/25/172 60/62/173 59/61/174 
f 76/83/175 74/79/176 45/45/177 37/37/178 39/39/179 
s 2
f 5/89/180 2/90/181 1/91/182 14/84/183 76/85/184 39/86/185 38/87/186 6/88/187 
s 1
f 40/40/188 13/13/189 12/12/190 26/26/191 46/46/192 56/58/193 
f 74/79/194 76/83/195 14/92/196 16/93/197 44/70/198 67/69/199 
f 77/94/200 78/95/201 71/76/202 73/78/203 79/96/204 
f 70/75/205 72/77/206 68/73/207 24/24/208 23/23/209 
f 79/96/210 80/97/211 81/98/212 19/19/213 18/18/214 77/94/215 
f 69/74/216 22/22/217 21/21/218 63/65/219 81/98/220 80/97/221 
f 81/98/222 63/65/223 52/53/224 51/52/225 34/34/226 20/20/227 19/19/228 
f 72/77/229 70/75/230 69/74/231 80/97/232 79/96/233 73/78/234 
f 78/95/235 58/60/236 61/63/237 65/67/238 68/73/239 71/76/240 
s 2
f 58/60/241 66/68/242 53/72/243 59/61/244 
f 66/68/245 58/60/246 78/95/247 47/47/248 
f 47/47/249 78/95/250 77/94/251 46/46/252 
f 59/61/253 53/54/254 55/56/255 29/29/256 32/32/257 33/81/258 75/80/259 
f 33/81/260 32/32/261 56/58/262 46/46/263 77/94/264 18/18/265 17/17/266 
# 52 polygons - 2 triangles

