# 3ds Max Wavefront OBJ Exporter v0.97b - (c)2007 guruware
# File Created: 16.09.2018 10:47:30

#
# object Level4
#

v  0.3536 -1.0000 -0.3536
v  0.0000 -1.0000 -0.5000
v  -0.3536 -1.0000 -0.3536
v  -0.5000 -1.0000 -0.0000
v  -0.3536 -1.0000 0.3536
v  0.0000 -1.0000 0.5000
v  0.3536 -1.0000 0.3536
v  0.5000 -1.0000 -0.0000
v  0.7071 -1.0000 -0.7071
v  0.0000 -1.0000 -1.0000
v  -0.7071 -1.0000 -0.7071
v  -1.0000 -1.0000 -0.0000
v  -0.7071 -1.0000 0.7071
v  0.0000 -1.0000 1.0000
v  0.7071 -1.0000 0.7071
v  1.0000 -1.0000 -0.0000
v  0.7071 1.0000 -0.7071
v  0.0000 1.0000 -1.0000
v  -0.7071 1.0000 -0.7071
v  -1.0000 1.0000 -0.0000
v  -0.7071 1.0000 0.7071
v  0.0000 1.0000 1.0000
v  0.7071 1.0000 0.7071
v  1.0000 1.0000 -0.0000
v  0.3536 1.0000 -0.3536
v  0.0000 1.0000 -0.0000
v  -0.3536 1.0000 -0.3536
v  -0.5000 1.0000 -0.0000
v  -0.3536 1.0000 0.3536
v  0.3536 1.0000 0.3536
v  0.5000 1.0000 -0.0000
v  0.0000 0.0000 -1.0000
v  -0.7071 0.0000 -0.7071
v  -1.0000 0.0000 -0.0000
v  -0.7071 0.0000 0.7071
v  0.0000 0.0000 1.0000
# 36 vertices

vn 0.0000 -1.0000 -0.0000
vn 0.0000 -0.6303 -0.7764
vn 0.5490 -0.6303 -0.5490
vn 0.0000 -1.0000 -0.0000
vn 0.0000 -1.0000 -0.0000
vn -0.5490 -0.6303 -0.5490
vn 0.0000 -0.6303 -0.7764
vn 0.0000 -1.0000 -0.0000
vn 0.0000 -1.0000 -0.0000
vn -0.7764 -0.6303 -0.0000
vn -0.5490 -0.6303 -0.5490
vn 0.0000 -1.0000 -0.0000
vn 0.0000 -1.0000 -0.0000
vn -0.5490 -0.6303 0.5490
vn -0.7764 -0.6303 -0.0000
vn 0.0000 -1.0000 -0.0000
vn 0.0000 -1.0000 -0.0000
vn 0.0000 -0.6303 0.7764
vn -0.5490 -0.6303 0.5490
vn 0.0000 -1.0000 -0.0000
vn 0.0000 -1.0000 -0.0000
vn 0.5490 -0.6303 0.5490
vn 0.0000 -0.6303 0.7764
vn 0.0000 -1.0000 -0.0000
vn 0.0000 -1.0000 -0.0000
vn 0.7764 -0.6303 -0.0000
vn 0.5490 -0.6303 0.5490
vn 0.0000 -1.0000 -0.0000
vn 0.0000 -1.0000 -0.0000
vn 0.5490 -0.6303 -0.5490
vn 0.7764 -0.6303 -0.0000
vn 0.0000 -1.0000 -0.0000
vn 0.0000 0.0000 -1.0000
vn 0.0000 0.6303 -0.7764
vn 0.5490 0.6303 -0.5490
vn 0.5490 -0.6303 -0.5490
vn 0.0000 -0.6303 -0.7764
vn -0.7071 0.0000 -0.7071
vn -0.5490 0.6303 -0.5490
vn 0.0000 0.6303 -0.7764
vn 0.0000 0.0000 -1.0000
vn -1.0000 0.0000 -0.0000
vn -0.7764 0.6303 -0.0000
vn -0.5490 0.6303 -0.5490
vn -0.7071 0.0000 -0.7071
vn -0.7071 0.0000 0.7071
vn -0.5490 0.6303 0.5490
vn -0.7764 0.6303 -0.0000
vn -1.0000 0.0000 -0.0000
vn 0.0000 0.0000 1.0000
vn 0.0000 0.6303 0.7764
vn -0.5490 0.6303 0.5490
vn -0.7071 0.0000 0.7071
vn 0.5490 0.6303 0.5490
vn 0.0000 0.6303 0.7764
vn 0.0000 0.0000 1.0000
vn 0.0000 -0.6303 0.7764
vn 0.5490 -0.6303 0.5490
vn 0.5490 0.6303 0.5490
vn 0.5490 -0.6303 0.5490
vn 0.7764 -0.6303 -0.0000
vn 0.7764 0.6303 -0.0000
vn 0.5490 0.6303 -0.5490
vn 0.7764 0.6303 -0.0000
vn 0.7764 -0.6303 -0.0000
vn 0.5490 -0.6303 -0.5490
vn 0.0000 1.0000 -0.0000
vn 0.5490 0.6303 -0.5490
vn 0.0000 0.6303 -0.7764
vn 0.0000 1.0000 -0.0000
vn 0.0000 1.0000 -0.0000
vn 0.0000 1.0000 -0.0000
vn 0.0000 0.6303 -0.7764
vn -0.5490 0.6303 -0.5490
vn -0.7764 0.6303 -0.0000
vn 0.0000 1.0000 -0.0000
vn 0.0000 1.0000 -0.0000
vn -0.5490 0.6303 -0.5490
vn -0.5490 0.6303 0.5490
vn 0.0000 1.0000 -0.0000
vn 0.0000 1.0000 -0.0000
vn -0.7764 0.6303 -0.0000
vn 0.0000 1.0000 -0.0000
vn -0.5490 0.6303 0.5490
vn 0.0000 0.6303 0.7764
vn 0.0000 1.0000 -0.0000
vn 0.0000 1.0000 -0.0000
vn 0.0000 1.0000 -0.0000
vn 0.0000 0.6303 0.7764
vn 0.5490 0.6303 0.5490
vn 0.7764 0.6303 -0.0000
vn 0.0000 1.0000 -0.0000
vn 0.0000 1.0000 -0.0000
vn 0.5490 0.6303 0.5490
vn 0.5490 0.6303 -0.5490
vn 0.0000 1.0000 -0.0000
vn 0.0000 1.0000 -0.0000
vn 0.7764 0.6303 -0.0000
vn 0.0000 1.0000 -0.0000
vn 0.0000 1.0000 -0.0000
vn 0.0000 1.0000 -0.0000
vn 0.0000 1.0000 -0.0000
vn 0.0000 1.0000 -0.0000
vn 0.0000 1.0000 -0.0000
vn 0.0000 1.0000 -0.0000
vn 0.0000 1.0000 -0.0000
vn 0.0000 -1.0000 -0.0000
vn 0.0000 -1.0000 -0.0000
vn 0.0000 -1.0000 -0.0000
vn 0.0000 -1.0000 -0.0000
vn 0.0000 -1.0000 -0.0000
vn 0.0000 -1.0000 -0.0000
vn 0.0000 -1.0000 -0.0000
vn 0.0000 -1.0000 -0.0000
vn 0.0000 -1.0000 -0.0000
vn 0.0000 -1.0000 -0.0000
vn 0.0000 -1.0000 -0.0000
vn 0.0000 -1.0000 -0.0000
vn -0.5490 -0.6303 -0.5490
vn -0.7071 0.0000 -0.7071
vn 0.0000 0.0000 -1.0000
vn 0.0000 -0.6303 -0.7764
vn -0.7764 -0.6303 -0.0000
vn -1.0000 0.0000 -0.0000
vn -0.7071 0.0000 -0.7071
vn -0.5490 -0.6303 -0.5490
vn -0.5490 -0.6303 0.5490
vn -0.7071 0.0000 0.7071
vn -1.0000 0.0000 -0.0000
vn -0.7764 -0.6303 -0.0000
vn 0.0000 -0.6303 0.7764
vn 0.0000 0.0000 1.0000
vn -0.7071 0.0000 0.7071
vn -0.5490 -0.6303 0.5490
# 134 vertex normals

vt 0.5552 0.1010 0.0000
vt 0.5000 0.0781 0.0000
vt 0.4448 0.1010 0.0000
vt 0.4219 0.1563 0.0000
vt 0.4448 0.2115 0.0000
vt 0.5000 0.2344 0.0000
vt 0.5552 0.2115 0.0000
vt 0.5781 0.1563 0.0000
vt 0.6105 0.0458 0.0000
vt 0.5000 0.0000 0.0000
vt 0.3895 0.0458 0.0000
vt 0.3438 0.1563 0.0000
vt 0.3895 0.2667 0.0000
vt 0.5000 0.3125 0.0000
vt 0.6105 0.2667 0.0000
vt 0.6563 0.1563 0.0000
vt 0.3750 0.3125 0.0000
vt 0.4063 0.3125 0.0000
vt 0.4375 0.3125 0.0000
vt 0.4688 0.3125 0.0000
vt 0.5000 0.3125 0.0000
vt 0.5313 0.3125 0.0000
vt 0.5625 0.3125 0.0000
vt 0.5938 0.3125 0.0000
vt 0.6250 0.3125 0.0000
vt 0.3750 0.6884 0.0000
vt 0.4063 0.6884 0.0000
vt 0.4375 0.6884 0.0000
vt 0.4688 0.6884 0.0000
vt 0.5000 0.6884 0.0000
vt 0.5313 0.6884 0.0000
vt 0.5625 0.6884 0.0000
vt 0.5938 0.6884 0.0000
vt 0.6250 0.6884 0.0000
vt 0.6105 0.7333 0.0000
vt 0.5000 0.6875 0.0000
vt 0.3895 0.7333 0.0000
vt 0.3438 0.8438 0.0000
vt 0.3895 0.9542 0.0000
vt 0.5000 1.0000 0.0000
vt 0.6105 0.9542 0.0000
vt 0.6563 0.8438 0.0000
vt 0.5552 0.7885 0.0000
vt 0.5000 0.8438 0.0000
vt 0.4448 0.7885 0.0000
vt 0.4219 0.8438 0.0000
vt 0.4448 0.8990 0.0000
vt 0.5552 0.8990 0.0000
vt 0.5781 0.8438 0.0000
vt 0.4063 0.5005 0.0000
vt 0.4375 0.5005 0.0000
vt 0.4688 0.5005 0.0000
vt 0.5000 0.5005 0.0000
vt 0.5313 0.5005 0.0000
# 54 texture coords

o Level4
g Level4
s 1
f 2/2/1 10/10/2 9/9/3 1/1/4 
f 3/3/5 11/11/6 10/10/7 2/2/8 
f 4/4/9 12/12/10 11/11/11 3/3/12 
f 5/5/13 13/13/14 12/12/15 4/4/16 
f 6/6/17 14/14/18 13/13/19 5/5/20 
f 7/7/21 15/15/22 14/14/23 6/6/24 
f 8/8/25 16/16/26 15/15/27 7/7/28 
f 1/1/29 9/9/30 16/16/31 8/8/32 
s 2
f 32/50/33 18/27/34 17/26/35 9/17/36 10/18/37 
f 33/51/38 19/28/39 18/27/40 32/50/41 
s 4
f 34/52/42 20/29/43 19/28/44 33/51/45 
f 35/53/46 21/30/47 20/29/48 34/52/49 
s 2
f 36/54/50 22/31/51 21/30/52 35/53/53 
f 23/32/54 22/31/55 36/54/56 14/22/57 15/23/58 
s 4
f 23/32/59 15/23/60 16/24/61 24/33/62 
f 17/34/63 24/33/64 16/24/65 9/25/66 
s 1
f 25/48/67 17/41/68 18/40/69 26/44/70 
f 27/47/71 26/44/72 18/40/73 19/39/74 
f 20/38/75 28/46/76 27/47/77 19/39/78 
f 21/37/79 29/45/80 28/46/81 20/38/82 
f 29/45/83 21/37/84 22/36/85 26/44/86 
f 30/43/87 26/44/88 22/36/89 23/35/90 
f 24/42/91 31/49/92 30/43/93 23/35/94 
f 17/41/95 25/48/96 31/49/97 24/42/98 
f 26/44/99 30/43/100 31/49/101 25/48/102 
f 26/44/103 27/47/104 28/46/105 29/45/106 
f 1/1/107 6/6/108 5/5/109 2/2/110 
f 2/2/111 5/5/112 4/4/113 3/3/114 
f 6/6/115 1/1/116 8/8/117 7/7/118 
s 2
f 11/19/119 33/51/120 32/50/121 10/18/122 
s 4
f 12/20/123 34/52/124 33/51/125 11/19/126 
f 13/21/127 35/53/128 34/52/129 12/20/130 
s 2
f 14/22/131 36/54/132 35/53/133 13/21/134 
# 33 polygons

