# 3ds Max Wavefront OBJ Exporter v0.97b - (c)2007 guruware
# File Created: 16.09.2018 10:53:39

#
# object Level3
#

v  -1.4363 0.4109 0.1204
v  -0.3536 0.0000 0.3536
v  -1.3152 0.7091 0.1596
v  -0.2886 0.2886 0.2886
v  -1.1975 0.7011 -0.1424
v  -0.3536 0.3536 -0.0000
v  -1.3185 0.4029 -0.1816
v  -0.5000 0.0000 -0.0000
v  -0.3536 -0.3536 -0.0000
v  0.0000 -0.5000 -0.0000
v  0.0000 -0.3536 0.3536
v  0.0000 0.0000 0.5000
v  0.3536 -0.3536 -0.0000
v  0.5000 0.0000 -0.0000
v  0.3536 0.0000 0.3536
v  0.0000 0.3536 0.3536
v  0.0000 0.5000 -0.0000
v  0.3536 0.3536 -0.0000
v  -0.3536 0.0000 -0.3536
v  0.0000 0.0159 -0.4215
v  0.3536 0.0000 -0.3536
v  0.0000 -0.3536 -0.3536
v  -0.2886 -0.2886 0.2886
v  0.2886 -0.2886 0.2886
v  0.2886 0.2886 0.2886
v  -0.2886 -0.2886 -0.2886
v  0.2886 -0.2886 -0.2886
# 27 vertices

vn -0.8896 -0.3163 0.3296
vn -0.5238 -0.1791 0.8328
vn -0.1185 0.6682 0.7345
vn -0.4627 0.7342 0.4968
vn -0.4627 0.7342 0.4968
vn -0.1185 0.6682 0.7345
vn -0.1326 0.7715 -0.6223
vn -0.1444 0.8270 -0.5433
vn -0.8342 -0.4634 -0.2990
vn -0.5558 -0.2915 -0.7785
vn -0.1326 0.7715 -0.6223
vn -0.8342 -0.4634 -0.2990
vn -0.5238 -0.1791 0.8328
vn -0.8896 -0.3163 0.3296
vn -0.5558 -0.2915 -0.7785
vn -0.8896 -0.3163 0.3296
vn -0.4627 0.7342 0.4968
vn -0.1326 0.7715 -0.6223
vn -0.5558 -0.2915 -0.7785
vn -0.8342 -0.4634 -0.2990
vn -0.7071 -0.7071 -0.0000
vn -0.5774 -0.5774 0.5774
vn -0.5238 -0.1791 0.8328
vn 0.0000 -1.0000 -0.0000
vn 0.0000 -0.7071 0.7071
vn -0.5774 -0.5774 0.5774
vn -0.7071 -0.7071 -0.0000
vn 0.0000 0.0000 1.0000
vn -0.5238 -0.1791 0.8328
vn -0.5774 -0.5774 0.5774
vn 0.0000 -0.7071 0.7071
vn 0.0000 -1.0000 -0.0000
vn 0.7071 -0.7071 -0.0000
vn 0.5774 -0.5774 0.5774
vn 0.0000 -0.7071 0.7071
vn 1.0000 0.0000 -0.0000
vn 0.7071 0.0000 0.7071
vn 0.5774 -0.5774 0.5774
vn 0.7071 -0.7071 -0.0000
vn 0.0000 0.0000 1.0000
vn 0.0000 -0.7071 0.7071
vn 0.5774 -0.5774 0.5774
vn 0.7071 0.0000 0.7071
vn 0.0000 0.9793 -0.2024
vn -0.1444 0.8270 -0.5433
vn -0.1185 0.6682 0.7345
vn 0.0000 0.7071 0.7071
vn 0.0000 0.0000 1.0000
vn 0.0000 0.7071 0.7071
vn -0.1185 0.6682 0.7345
vn -0.5238 -0.1791 0.8328
vn 1.0000 0.0000 -0.0000
vn 0.6869 0.6851 -0.2423
vn 0.5774 0.5774 0.5774
vn 0.7071 0.0000 0.7071
vn 0.0000 0.9793 -0.2024
vn 0.0000 0.7071 0.7071
vn 0.5774 0.5774 0.5774
vn 0.6869 0.6851 -0.2423
vn 0.0000 0.0000 1.0000
vn 0.7071 0.0000 0.7071
vn 0.5774 0.5774 0.5774
vn 0.0000 0.7071 0.7071
vn -0.5667 0.4745 -0.6736
vn -0.8342 -0.4634 -0.2990
vn -0.1444 0.8270 -0.5433
vn 0.0000 0.2807 -0.9598
vn -0.1444 0.8270 -0.5433
vn 0.0000 0.9793 -0.2024
vn 0.0000 0.2807 -0.9598
vn 0.6869 0.6851 -0.2423
vn 1.0000 0.0000 -0.0000
vn 0.5667 0.4745 -0.6736
vn 0.0000 0.2807 -0.9598
vn 0.0000 0.2807 -0.9598
vn 0.0000 0.9793 -0.2024
vn 0.6869 0.6851 -0.2423
vn 0.0000 -1.0000 -0.0000
vn -0.7071 -0.7071 -0.0000
vn -0.5774 -0.5774 -0.5774
vn 0.0000 -0.6354 -0.7722
vn -0.8342 -0.4634 -0.2990
vn -0.5667 0.4745 -0.6736
vn -0.5774 -0.5774 -0.5774
vn -0.7071 -0.7071 -0.0000
vn 0.0000 0.2807 -0.9598
vn 0.0000 -0.6354 -0.7722
vn -0.5774 -0.5774 -0.5774
vn -0.5667 0.4745 -0.6736
vn 1.0000 0.0000 -0.0000
vn 0.7071 -0.7071 -0.0000
vn 0.5774 -0.5774 -0.5774
vn 0.5667 0.4745 -0.6736
vn 0.0000 -1.0000 -0.0000
vn 0.0000 -0.6354 -0.7722
vn 0.5774 -0.5774 -0.5774
vn 0.7071 -0.7071 -0.0000
vn 0.0000 0.2807 -0.9598
vn 0.5667 0.4745 -0.6736
vn 0.5774 -0.5774 -0.5774
vn 0.0000 -0.6354 -0.7722
vn -0.1326 0.7715 -0.6223
vn -0.1185 0.6682 0.7345
vn -0.1444 0.8270 -0.5433
# 104 vertex normals

vt 0.3750 0.0000 0.0000
vt 0.7398 -0.1266 0.0000
vt 0.3750 0.2500 0.0000
vt 0.7087 0.2679 0.0000
vt 0.3750 0.5000 0.0000
vt 0.6640 0.2684 0.0000
vt 0.3750 0.7500 0.0000
vt 0.6825 0.7476 0.0000
vt 0.3750 1.0000 0.0000
vt 0.7397 0.7520 0.0000
vt 0.1250 0.0000 0.0000
vt 0.1250 0.2500 0.0000
vt 0.3733 0.1226 0.0000
vt 0.2514 0.1266 0.0000
vt 0.2500 -0.0000 0.0000
vt 0.3750 0.0000 0.0000
vt 0.3750 0.8750 0.0000
vt 0.5000 0.8750 0.0000
vt 0.5000 1.0000 0.0000
vt 0.3750 1.0000 0.0000
vt 0.5000 -0.0000 0.0000
vt 0.5000 0.1250 0.0000
vt 0.6250 0.8750 0.0000
vt 0.6250 1.0000 0.0000
vt 0.7500 -0.0000 0.0000
vt 0.7500 0.1250 0.0000
vt 0.6250 0.1250 0.0000
vt 0.6250 0.0000 0.0000
vt 0.5000 0.2500 0.0000
vt 0.5000 0.3750 0.0000
vt 0.3667 0.3750 0.0000
vt 0.3813 0.2500 0.0000
vt 0.7500 0.2500 0.0000
vt 0.6250 0.2500 0.0000
vt 0.6250 0.3750 0.0000
vt 0.5020 0.5000 0.0000
vt 0.3750 0.6250 0.0000
vt 0.1250 0.1250 0.0000
vt 0.2475 0.2524 0.0000
vt 0.2100 0.1523 0.0000
vt 0.8750 0.1250 0.0000
vt 0.7715 0.1465 0.0000
vt 0.6250 0.6250 0.0000
vt 0.5000 0.7500 0.0000
vt 0.3750 0.7500 0.0000
vt 0.1250 0.0000 0.0000
vt 0.8750 0.0000 0.0000
vt 0.6250 0.7500 0.0000
# 48 texture coords

o Level3
g Level3
s 1
f 1/1/1 2/2/2 4/4/3 3/3/4 
s 2
f 3/3/5 4/4/6 5/5/7 
s 1
f 6/6/8 8/8/9 7/7/10 5/5/11 
s 2
f 8/8/12 2/10/13 1/9/14 7/7/15 
s 4
f 1/1/16 3/3/17 5/12/18 7/11/19 
f 8/14/20 9/15/21 23/16/22 2/13/23 
s 2
f 10/18/24 11/19/25 23/20/26 9/17/27 
s 1
f 12/22/28 2/13/29 23/16/30 11/21/31 
s 2
f 10/18/32 13/23/33 24/24/34 11/19/35 
s 4
f 14/26/36 15/27/37 24/28/38 13/25/39 
s 1
f 12/22/40 11/21/41 24/28/42 15/27/43 
s 2
f 17/30/44 6/31/45 4/32/46 16/29/47 
s 1
f 12/22/48 16/29/49 4/32/50 2/13/51 
s 4
f 14/26/52 18/33/53 25/34/54 15/27/55 
s 2
f 17/30/56 16/29/57 25/34/58 18/35/59 
s 1
f 12/22/60 15/27/61 25/34/62 16/29/63 
s 8
f 19/38/64 8/14/65 6/39/66 20/40/67 
f 6/31/68 17/30/69 20/36/70 
f 18/33/71 14/26/72 21/41/73 20/42/74 
f 20/36/75 17/30/76 18/35/77 
s 2
f 10/18/78 9/17/79 26/45/80 22/44/81 
s 4
f 8/14/82 19/38/83 26/46/84 9/15/85 
s 1
f 20/36/86 22/44/87 26/45/88 19/37/89 
s 4
f 14/26/90 13/25/91 27/47/92 21/41/93 
s 2
f 10/18/94 22/44/95 27/48/96 13/23/97 
s 1
f 20/36/98 21/43/99 27/48/100 22/44/101 
s 2
f 5/5/102 4/4/103 6/6/104 
# 23 polygons - 4 triangles

