# 3ds Max Wavefront OBJ Exporter v0.97b - (c)2007 guruware
# File Created: 16.09.2018 10:53:05

#
# object Level2
#

v  -1.0000 1.0000 -0.0000
v  0.0000 1.0000 -0.0000
v  0.0000 1.0000 -1.0000
v  -1.0000 1.0000 -1.0000
v  -1.0000 0.0000 -0.0000
v  -0.5000 0.0000 -0.0000
v  -0.5000 0.5000 -0.0000
v  0.0000 0.5000 -0.0000
v  0.0000 0.0000 -0.5000
v  0.0000 0.0000 -1.0000
v  0.0000 0.5000 -0.5000
v  -0.5000 -0.5000 0.5000
v  0.5000 -0.5000 0.5000
v  0.5000 0.5000 0.5000
v  -0.5000 0.5000 0.5000
v  0.5000 -0.5000 -0.5000
v  0.5000 0.5000 -0.5000
v  -0.5000 -0.5000 -0.5000
v  -1.0000 0.0000 -1.0000
v  -0.5000 0.0000 -0.5000
# 20 vertices

vn 0.5774 0.5774 0.5774
vn 0.5774 0.5774 -0.5774
vn -0.5774 0.5774 -0.5774
vn -0.5774 0.5774 0.5774
vn -0.5774 0.5774 -0.5774
vn 0.5774 -0.5774 0.5774
vn 0.5774 0.5774 0.5774
vn -0.5774 0.5774 0.5774
vn -0.5774 -0.5774 0.5774
vn 0.5774 -0.5774 0.5774
vn 0.5774 0.5774 -0.5774
vn 0.5774 0.5774 0.5774
vn 0.5774 -0.5774 0.5774
vn -0.5774 0.5774 -0.5774
vn 0.5774 -0.5774 0.5774
vn 0.5774 -0.5774 -0.5774
vn 0.5774 -0.5774 0.5774
vn 0.5774 0.5774 0.5774
vn -0.5774 0.5774 0.5774
vn -0.5774 -0.5774 0.5774
vn 0.5774 -0.5774 -0.5774
vn 0.5774 0.5774 -0.5774
vn 0.5774 0.5774 0.5774
vn 0.5774 -0.5774 0.5774
vn 0.5774 0.5774 0.5774
vn 0.5774 0.5774 -0.5774
vn -0.5774 0.5774 -0.5774
vn 0.5774 -0.5774 0.5774
vn -0.5774 0.5774 -0.5774
vn -0.5774 0.5774 0.5774
vn 0.5774 -0.5774 -0.5774
vn 0.5774 -0.5774 0.5774
vn -0.5774 -0.5774 0.5774
vn -0.5774 -0.5774 -0.5774
vn -0.5774 -0.5774 0.5774
vn -0.5774 0.5774 0.5774
vn -0.5774 0.5774 -0.5774
vn -0.5774 -0.5774 -0.5774
vn 0.5774 0.5774 -0.5774
vn 0.5774 -0.5774 -0.5774
vn -0.5774 -0.5774 -0.5774
vn -0.5774 0.5774 -0.5774
vn -0.5774 -0.5774 0.5774
vn -0.5774 0.5774 0.5774
vn -0.5774 0.5774 -0.5774
vn 0.5774 -0.5774 0.5774
vn -0.5774 0.5774 -0.5774
vn -0.5774 -0.5774 -0.5774
vn 0.5774 -0.5774 -0.5774
vn -0.5774 -0.5774 -0.5774
vn -0.5774 0.5774 -0.5774
vn 0.5774 -0.5774 0.5774
vn -0.5774 0.5774 -0.5774
vn 0.5774 0.5774 -0.5774
vn -0.5774 -0.5774 -0.5774
vn 0.5774 -0.5774 -0.5774
vn 0.5774 -0.5774 0.5774
vn -0.5774 0.5774 -0.5774
vn 0.5774 -0.5774 0.5774
vn -0.5774 -0.5774 0.5774
# 60 vertex normals

vt 0.3750 0.2500 0.0000
vt 0.6250 0.2500 0.0000
vt 0.6250 0.5000 0.0000
vt 0.3750 0.5000 0.0000
vt 0.3750 0.0000 0.0000
vt 0.5000 0.0000 0.0000
vt 0.5000 0.1250 0.0000
vt 0.6250 0.1250 0.0000
vt 0.7500 0.0000 0.0000
vt 0.8750 0.0000 0.0000
vt 0.8750 0.2500 0.0000
vt 0.7500 0.1250 0.0000
vt 0.3750 0.0000 0.0000
vt 0.6250 0.0000 0.0000
vt 0.6250 0.2500 0.0000
vt 0.3750 0.2500 0.0000
vt 0.8750 0.0000 0.0000
vt 0.8750 0.2500 0.0000
vt 0.6250 0.5000 0.0000
vt 0.5000 0.5000 0.0000
vt 0.5000 0.3750 0.0000
vt 0.3750 0.3750 0.0000
vt 0.3750 0.7500 0.0000
vt 0.6250 0.7500 0.0000
vt 0.6250 1.0000 0.0000
vt 0.3750 1.0000 0.0000
vt 0.1250 0.0000 0.0000
vt 0.1250 0.2500 0.0000
vt 0.6250 0.7500 0.0000
vt 0.3750 0.7500 0.0000
vt 0.1250 0.0000 0.0000
vt 0.2500 0.2500 0.0000
vt 0.2500 0.1250 0.0000
vt 0.1250 0.1250 0.0000
vt 0.3750 0.6250 0.0000
vt 0.5000 0.6250 0.0000
vt 0.6250 0.8750 0.0000
vt 0.5000 0.8750 0.0000
vt 0.5000 1.0000 0.0000
vt 0.3750 1.0000 0.0000
# 40 texture coords

o Level2
g Level2
s 1
f 2/2/1 3/3/2 4/4/3 1/1/4 
s 2
f 7/7/5 8/8/6 2/2/7 1/1/8 5/5/9 6/6/10 
s 4
f 3/11/11 2/2/12 8/8/13 11/12/14 9/9/15 10/10/16 
s 1
f 13/14/17 14/15/18 15/16/19 12/13/20 
s 2
f 16/17/21 17/18/22 14/15/23 13/14/24 
s 8
f 14/15/25 17/19/26 11/20/27 8/21/28 7/22/29 15/16/30 
s 4
f 16/24/31 13/25/32 12/26/33 18/23/34 
f 5/5/35 1/1/36 4/28/37 19/27/38 
s 2
f 3/3/39 10/29/40 19/30/41 4/4/42 
s 16
f 12/13/43 15/16/44 7/32/45 6/33/46 20/34/47 18/31/48 
s 1
f 16/24/49 18/23/50 20/35/51 9/36/52 11/20/53 17/19/54 
s 8
f 19/30/55 10/29/56 9/37/57 20/38/58 6/39/59 5/40/60 
# 12 polygons

