# Exported from Rocket 3F ()


mtllib Tree.mtl

o Object_Box

#     Vertices: 32
#        Faces: 60
#    Materials: 1

# vertex list

v -1.266755 -10.8967 1.664441
v -1.266755 -10.8967 -1.664441
v 1.587327 -10.81397 1.664441
v 1.587327 -10.81397 -1.664441
v -9.84154 2.667346 0.953796
v -9.84154 2.667346 -0.954027
v 1.372572 -4.403912 1.43231
v 1.372572 -4.403912 -1.43231
v -9.84154 3.819555 0.816858
v -9.84154 3.819555 -0.817089
v 8.146852 8.310399 0.834969
v 8.146852 8.310399 -0.834969
v -0.522892 5.958113 1.045519
v -0.522892 5.958113 -1.045519
v 8.055033 9.6071 0.711648
v 8.055033 9.6071 -0.711648
v -0.482851 11.39515 0.886722
v -0.482851 11.39515 -0.886722
v 0.937028 11.36993 0.886722
v 0.937028 11.36993 -0.886722
v -0.862919 -3.152862 1.43231
v -0.862919 -3.152862 -1.43231
v -0.728445 -0.301206 -1.226696
v -0.728445 -0.301206 1.226696
v 1.203572 2.5306 1.226696
v 1.068683 4.435663 1.045519
v 1.068683 4.435663 -1.045519
v 1.203572 2.5306 -1.226696
v 4.64051 3.892634 1.226696
v 4.505621 5.797697 1.045519
v 4.505621 5.797697 -1.045519
v 4.64051 3.892634 -1.226696

# texture coords

vt 0 0
vt 1 0
vt 1 0
vt 1 0
vt 0 0
vt 1 1
vt 1 0
vt 0 0
vt 0 0
vt 0 0
vt 1 0
vt 0 1
vt 1 0.25
vt 0 0.25
vt 1 0.25
vt 0 0.25
vt 0 0.25
vt 1 0.25
vt 1 0.5
vt 0 0.5
vt 0 0.5
vt 1 0.5
vt 0 0.75
vt 1 0.75
vt 1 0.75
vt 0 0.75
vt 0 0.75
vt 1 0.75
vt 0 1
vt 1 1
vt 0 0
vt 1 1
vt 0 1
vt 0 1
vt 1 1
vt 0 1
vt 1 0
vt 0 1
vt 1 1
vt 1 1
vt 0 0.25
vt 1 0.25
vt 1 0.25
vt 0 0.25
vt 1 0.5
vt 0 0.5
vt 0 0.5
vt 1 0.5
vt 1 0.5
vt 0 0.5
vt 1 0.75
vt 0 0.75
vt 0 0.75
vt 1 0.75
vt 0 0.5
vt 1 0.5
vt 0 0.5
vt 0 0.75
vt 1 0.75
vt 1 0.5

# vertex normals

vn 0.028974 -0.99958 0
vn 0.007502 0.032682 0.999438
vn -0.998643 0.052079 0
vn 0.028974 -0.99958 0
vn 0.007502 0.032682 -0.999438
vn -0.998643 0.052079 0
vn 0.028974 -0.99958 0
vn 0.007502 0.032682 0.999438
vn 0.999439 0.033484 0
vn 0.028974 -0.99958 0
vn 0.007502 0.032682 -0.999438
vn 0.999439 0.033484 0
vn -1 0 0
vn -0.543944 -0.839122 0
vn -0.002047 0.085312 0.996352
vn -1 0 0
vn -0.002022 0.085311 -0.996352
vn -0.543944 -0.839122 0
vn -0.0042 0.037306 0.999295
vn 0.999582 0.028924 0
vn -0.0042 0.037306 -0.999295
vn 0.999582 0.028924 0
vn -1 0 0
vn -0.002047 0.085312 0.996352
vn 0.412016 0.911177 0
vn -1 0 0
vn 0.412016 0.911177 0
vn -0.002022 0.085311 -0.996352
vn 0.997502 0.070633 0
vn -0.007407 0.094154 0.99553
vn 0.783274 -0.621677 0
vn 0.997502 0.070633 0
vn 0.783274 -0.621677 0
vn -0.007407 0.094154 -0.99553
vn -0.001645 0.035123 0.999382
vn -0.999798 0.020095 0
vn -0.001645 0.035123 -0.999382
vn -0.999798 0.020095 0
vn 0.997502 0.070633 0
vn -0.731633 0.681699 0
vn -0.007407 0.094154 0.99553
vn 0.997502 0.070633 0
vn -0.007407 0.094154 -0.99553
vn -0.731633 0.681699 0
vn 0.017763 0.999842 0
vn 0.013238 0.025759 0.999581
vn -0.999973 0.007364 0
vn 0.017763 0.999842 0
vn 0.013238 0.025759 -0.999581
vn -0.999973 0.007364 0
vn 0.017763 0.999842 0
vn 0.013238 0.025759 0.999581
vn 0.99982 0.018983 0
vn 0.017763 0.999842 0
vn 0.013238 0.025759 -0.999581
vn 0.99982 0.018983 0
vn -0.003483 0.053322 0.998571
vn -0.543944 -0.839122 0
vn -0.998643 0.052079 0
vn -0.003475 0.053322 -0.998571
vn -0.543944 -0.839122 0
vn -0.998643 0.052079 0
vn -0.011486 0.057249 -0.998294
vn -0.999461 0.032822 0
vn 0.412016 0.911177 0
vn -0.011494 0.057249 0.998294
vn -0.999461 0.032822 0
vn 0.412016 0.911177 0
vn -0.022977 0.059502 0.997964
vn 0.368418 -0.92966 0
vn 0.999703 0.024364 0
vn -0.013264 0.054128 0.998446
vn 0.99982 0.018983 0
vn -0.368418 0.92966 0
vn -0.013264 0.054128 -0.998446
vn 0.99982 0.018983 0
vn -0.368418 0.92966 0
vn -0.022977 0.059502 -0.997964
vn 0.368418 -0.92966 0
vn 0.999703 0.024364 0
vn 0.59608 -0.802925 0
vn -0.021946 0.093113 0.995414
vn -0.021946 0.093113 0.995414
vn -0.563825 0.825894 0
vn -0.563825 0.825894 0
vn -0.021946 0.093113 -0.995414
vn -0.021946 0.093113 -0.995414
vn 0.59608 -0.802925 0

# face list

usemtl Orange
g Object_Box
s 2
f 1/3/1 2/6/4 4/12/10 3/9/7
s 4
f 17/31/45 19/37/51 20/40/54 18/34/48
s 8
f 1/1/2 3/7/8 7/15/19 21/41/57
f 21/41/57 7/15/19 25/49/69 24/47/66
f 24/47/66 25/49/69 26/51/72 13/23/35
f 13/23/35 26/51/72 19/35/52 17/29/46
s 16
f 2/4/5 22/43/60 8/17/21 4/10/11
f 22/43/60 23/45/63 28/55/78 8/17/21
f 23/45/63 14/25/37 27/53/75 28/55/78
f 14/25/37 18/32/49 20/38/55 27/53/75
s 32
f 1/2/3 21/42/59 22/44/62 2/5/6
f 5/13/13 9/19/23 10/20/26 6/14/16
f 24/48/67 13/24/36 14/26/38 23/46/64
f 13/24/36 17/30/47 18/33/50 14/26/38
s 64
f 3/8/9 4/11/12 8/18/22 7/16/20
f 7/16/20 8/18/22 28/56/80 25/50/71
f 11/21/29 12/22/32 16/28/42 15/27/39
f 26/52/73 27/54/76 20/39/56 19/36/53
s off
f 21/41/58 5/13/14 6/14/18 22/43/61
f 22/43/60 6/14/17 10/20/28 23/45/63
f 23/45/65 10/20/27 9/19/25 24/47/68
f 24/47/66 9/19/24 5/13/15 21/41/57
f 25/49/69 29/57/82 30/58/83 26/51/72
f 26/51/74 30/58/84 31/59/85 27/53/77
f 27/53/75 31/59/86 32/60/87 28/55/78
f 28/55/79 32/60/88 29/57/81 25/49/70
f 29/57/82 11/21/30 15/27/41 30/58/83
f 30/58/84 15/27/40 16/28/44 31/59/85
f 31/59/86 16/28/43 12/22/34 32/60/87
f 32/60/88 12/22/33 11/21/31 29/57/81

o Object_Sphere

#     Vertices: 17
#        Faces: 30
#    Materials: 1

# vertex list

v 5.358941 5.857829 0
v 5.358941 8.197739 -5.64904
v 10.7315 8.197739 -1.745649
v 8.679362 8.197739 4.570169
v 2.038518 8.197739 4.570168
v -0.013615 8.197739 -1.74565
v 5.358941 13.84678 -7.988949
v 12.95688 13.84678 -2.468721
v 10.05473 13.84678 6.463196
v 0.663153 13.84678 6.463195
v -2.239001 13.84678 -2.468722
v 5.358941 19.49582 -5.64904
v 10.7315 19.49582 -1.745649
v 8.679362 19.49582 4.570169
v 2.038518 19.49582 4.570168
v -0.013615 19.49582 -1.74565
v 5.358941 21.83573 0

# texture coords

vt 0.5 0
vt 0 0.25
vt 1 0.25
vt 0.8 0.25
vt 0.6 0.25
vt 0.4 0.25
vt 0.2 0.25
vt 0 0.5
vt 1 0.5
vt 0.8 0.5
vt 0.6 0.5
vt 0.4 0.5
vt 0.2 0.5
vt 0 0.75
vt 1 0.75
vt 0.8 0.75
vt 0.6 0.75
vt 0.4 0.75
vt 0.2 0.75
vt 0.5 1

# vertex normals

vn -0.267875 -0.890115 -0.368698
vn -0.43343 -0.890115 0.14083
vn 0 -0.890115 0.455736
vn 0.43343 -0.890115 0.14083
vn 0.267875 -0.890115 -0.368698
vn 0.267875 -0.890115 -0.368698
vn -0.267875 -0.890115 -0.368698
vn -0.557325 -0.31774 -0.767092
vn 0.557325 -0.31774 -0.767092
vn 0.267875 -0.890115 -0.368698
vn 0.43343 -0.890115 0.14083
vn 0.901771 -0.31774 0.293003
vn 0.557325 -0.31774 -0.767092
vn 0.43343 -0.890115 0.14083
vn 0 -0.890115 0.455736
vn 0 -0.31774 0.948178
vn 0.901771 -0.31774 0.293003
vn 0 -0.890115 0.455736
vn -0.43343 -0.890115 0.14083
vn -0.901771 -0.31774 0.293003
vn 0 -0.31774 0.948178
vn -0.43343 -0.890115 0.14083
vn -0.267875 -0.890115 -0.368698
vn -0.557325 -0.31774 -0.767092
vn -0.901771 -0.31774 0.293003
vn 0.557325 -0.31774 -0.767092
vn -0.557325 -0.31774 -0.767092
vn -0.557325 0.31774 -0.767092
vn 0.557325 0.31774 -0.767092
vn 0.557325 -0.31774 -0.767092
vn 0.901771 -0.31774 0.293003
vn 0.901771 0.31774 0.293003
vn 0.557325 0.31774 -0.767092
vn 0.901771 -0.31774 0.293003
vn 0 -0.31774 0.948178
vn 0 0.31774 0.948178
vn 0.901771 0.31774 0.293003
vn 0 -0.31774 0.948178
vn -0.901771 -0.31774 0.293003
vn -0.901771 0.31774 0.293003
vn 0 0.31774 0.948178
vn -0.901771 -0.31774 0.293003
vn -0.557325 -0.31774 -0.767092
vn -0.557325 0.31774 -0.767092
vn -0.901771 0.31774 0.293003
vn 0.557325 0.31774 -0.767092
vn -0.557325 0.31774 -0.767092
vn -0.267875 0.890115 -0.368698
vn 0.267875 0.890115 -0.368698
vn 0.557325 0.31774 -0.767092
vn 0.901771 0.31774 0.293003
vn 0.43343 0.890115 0.14083
vn 0.267875 0.890115 -0.368698
vn 0.901771 0.31774 0.293003
vn 0 0.31774 0.948178
vn 0 0.890115 0.455736
vn 0.43343 0.890115 0.14083
vn 0 0.31774 0.948178
vn -0.901771 0.31774 0.293003
vn -0.43343 0.890115 0.14083
vn 0 0.890115 0.455736
vn -0.901771 0.31774 0.293003
vn -0.557325 0.31774 -0.767092
vn -0.267875 0.890115 -0.368698
vn -0.43343 0.890115 0.14083
vn -0.267875 0.890115 -0.368698
vn -0.43343 0.890115 0.14083
vn 0 0.890115 0.455736
vn 0.43343 0.890115 0.14083
vn 0.267875 0.890115 -0.368698

# face list

usemtl Green_03
g Object_Sphere
s 2
f 34/63/94 35/64/98 33/61/93
f 35/64/99 36/65/102 33/61/92
f 36/65/103 37/66/106 33/61/91
f 37/66/107 38/67/110 33/61/90
f 38/67/111 34/62/95 33/61/89
f 39/69/114 40/70/118 35/64/101 34/63/97
f 40/70/119 41/71/122 36/65/105 35/64/100
f 41/71/123 42/72/126 37/66/109 36/65/104
f 42/72/127 43/73/130 38/67/113 37/66/108
f 43/73/131 39/68/115 34/62/96 38/67/112
f 44/75/134 45/76/138 40/70/121 39/69/117
f 45/76/139 46/77/142 41/71/125 40/70/120
f 46/77/143 47/78/146 42/72/129 41/71/124
f 47/78/147 48/79/150 43/73/133 42/72/128
f 48/79/151 44/74/135 39/68/116 43/73/132
f 49/80/158 45/76/141 44/75/137
f 49/80/157 46/77/145 45/76/140
f 49/80/156 47/78/149 46/77/144
f 49/80/155 48/79/153 47/78/148
f 49/80/154 44/74/136 48/79/152

o Object_Sphere_01

#     Vertices: 17
#        Faces: 30
#    Materials: 1

# vertex list

v -2.409636 9.056276 0
v -2.409636 11.39619 -5.64904
v 2.96292 11.39619 -1.745649
v 0.910785 11.39619 4.570169
v -5.730059 11.39619 4.570168
v -7.782192 11.39619 -1.74565
v -2.409636 17.04523 -7.988949
v 5.188305 17.04523 -2.468721
v 2.286149 17.04523 6.463196
v -7.105423 17.04523 6.463195
v -10.00758 17.04523 -2.468722
v -2.409636 22.69427 -5.64904
v 2.96292 22.69427 -1.745649
v 0.910785 22.69427 4.570169
v -5.730059 22.69427 4.570168
v -7.782192 22.69427 -1.74565
v -2.409636 25.03418 0

# texture coords

vt 0.5 0
vt 0 0.25
vt 1 0.25
vt 0.8 0.25
vt 0.6 0.25
vt 0.4 0.25
vt 0.2 0.25
vt 0 0.5
vt 1 0.5
vt 0.8 0.5
vt 0.6 0.5
vt 0.4 0.5
vt 0.2 0.5
vt 0 0.75
vt 1 0.75
vt 0.8 0.75
vt 0.6 0.75
vt 0.4 0.75
vt 0.2 0.75
vt 0.5 1

# vertex normals

vn -0.267875 -0.890115 -0.368698
vn -0.43343 -0.890115 0.14083
vn 0 -0.890115 0.455736
vn 0.43343 -0.890115 0.14083
vn 0.267875 -0.890115 -0.368698
vn 0.267875 -0.890115 -0.368698
vn -0.267875 -0.890115 -0.368698
vn -0.557325 -0.31774 -0.767092
vn 0.557325 -0.31774 -0.767092
vn 0.267875 -0.890115 -0.368698
vn 0.43343 -0.890115 0.14083
vn 0.901771 -0.31774 0.293003
vn 0.557325 -0.31774 -0.767092
vn 0.43343 -0.890115 0.14083
vn 0 -0.890115 0.455736
vn 0 -0.31774 0.948178
vn 0.901771 -0.31774 0.293003
vn 0 -0.890115 0.455736
vn -0.43343 -0.890115 0.14083
vn -0.901771 -0.31774 0.293003
vn 0 -0.31774 0.948178
vn -0.43343 -0.890115 0.14083
vn -0.267875 -0.890115 -0.368698
vn -0.557325 -0.31774 -0.767092
vn -0.901771 -0.31774 0.293003
vn 0.557325 -0.31774 -0.767092
vn -0.557325 -0.31774 -0.767092
vn -0.557325 0.31774 -0.767092
vn 0.557325 0.31774 -0.767092
vn 0.557325 -0.31774 -0.767092
vn 0.901771 -0.31774 0.293003
vn 0.901771 0.31774 0.293003
vn 0.557325 0.31774 -0.767092
vn 0.901771 -0.31774 0.293003
vn 0 -0.31774 0.948178
vn 0 0.31774 0.948178
vn 0.901771 0.31774 0.293003
vn 0 -0.31774 0.948178
vn -0.901771 -0.31774 0.293003
vn -0.901771 0.31774 0.293003
vn 0 0.31774 0.948178
vn -0.901771 -0.31774 0.293003
vn -0.557325 -0.31774 -0.767092
vn -0.557325 0.31774 -0.767092
vn -0.901771 0.31774 0.293003
vn 0.557325 0.31774 -0.767092
vn -0.557325 0.31774 -0.767092
vn -0.267875 0.890115 -0.368698
vn 0.267875 0.890115 -0.368698
vn 0.557325 0.31774 -0.767092
vn 0.901771 0.31774 0.293003
vn 0.43343 0.890115 0.14083
vn 0.267875 0.890115 -0.368698
vn 0.901771 0.31774 0.293003
vn 0 0.31774 0.948178
vn 0 0.890115 0.455736
vn 0.43343 0.890115 0.14083
vn 0 0.31774 0.948178
vn -0.901771 0.31774 0.293003
vn -0.43343 0.890115 0.14083
vn 0 0.890115 0.455736
vn -0.901771 0.31774 0.293003
vn -0.557325 0.31774 -0.767092
vn -0.267875 0.890115 -0.368698
vn -0.43343 0.890115 0.14083
vn -0.267875 0.890115 -0.368698
vn -0.43343 0.890115 0.14083
vn 0 0.890115 0.455736
vn 0.43343 0.890115 0.14083
vn 0.267875 0.890115 -0.368698

# face list

usemtl Green_02
g Object_Sphere_01
s 2
f 51/83/164 52/84/168 50/81/163
f 52/84/169 53/85/172 50/81/162
f 53/85/173 54/86/176 50/81/161
f 54/86/177 55/87/180 50/81/160
f 55/87/181 51/82/165 50/81/159
f 56/89/184 57/90/188 52/84/171 51/83/167
f 57/90/189 58/91/192 53/85/175 52/84/170
f 58/91/193 59/92/196 54/86/179 53/85/174
f 59/92/197 60/93/200 55/87/183 54/86/178
f 60/93/201 56/88/185 51/82/166 55/87/182
f 61/95/204 62/96/208 57/90/191 56/89/187
f 62/96/209 63/97/212 58/91/195 57/90/190
f 63/97/213 64/98/216 59/92/199 58/91/194
f 64/98/217 65/99/220 60/93/203 59/92/198
f 65/99/221 61/94/205 56/88/186 60/93/202
f 66/100/228 62/96/211 61/95/207
f 66/100/227 63/97/215 62/96/210
f 66/100/226 64/98/219 63/97/214
f 66/100/225 65/99/223 64/98/218
f 66/100/224 61/94/206 65/99/222

o Object_Sphere_02

#     Vertices: 17
#        Faces: 30
#    Materials: 1

# vertex list

v -8.155766 0.104654 -0.021763
v -8.155766 1.734453 -3.956446
v -4.413659 1.734453 -1.237647
v -5.843017 1.734453 3.161463
v -10.46851 1.734453 3.161463
v -11.89787 1.734453 -1.237647
v -8.155766 5.669137 -5.586245
v -2.863628 5.669137 -1.741282
v -4.885046 5.669137 4.479998
v -11.42649 5.669137 4.479998
v -13.4479 5.669137 -1.741283
v -8.155766 9.60382 -3.956446
v -4.413659 9.60382 -1.237647
v -5.843017 9.60382 3.161463
v -10.46851 9.60382 3.161463
v -11.89787 9.60382 -1.237647
v -8.155766 11.23362 -0.021763

# texture coords

vt 0.5 0
vt 0 0.25
vt 1 0.25
vt 0.8 0.25
vt 0.6 0.25
vt 0.4 0.25
vt 0.2 0.25
vt 0 0.5
vt 1 0.5
vt 0.8 0.5
vt 0.6 0.5
vt 0.4 0.5
vt 0.2 0.5
vt 0 0.75
vt 1 0.75
vt 0.8 0.75
vt 0.6 0.75
vt 0.4 0.75
vt 0.2 0.75
vt 0.5 1

# vertex normals

vn -0.267875 -0.890115 -0.368698
vn -0.43343 -0.890115 0.14083
vn 0 -0.890115 0.455736
vn 0.43343 -0.890115 0.14083
vn 0.267875 -0.890115 -0.368698
vn 0.267875 -0.890115 -0.368698
vn -0.267875 -0.890115 -0.368698
vn -0.557325 -0.31774 -0.767092
vn 0.557325 -0.31774 -0.767092
vn 0.267875 -0.890115 -0.368698
vn 0.43343 -0.890115 0.14083
vn 0.901771 -0.31774 0.293003
vn 0.557325 -0.31774 -0.767092
vn 0.43343 -0.890115 0.14083
vn 0 -0.890115 0.455736
vn 0 -0.31774 0.948178
vn 0.901771 -0.31774 0.293003
vn 0 -0.890115 0.455736
vn -0.43343 -0.890115 0.14083
vn -0.901771 -0.31774 0.293003
vn 0 -0.31774 0.948178
vn -0.43343 -0.890115 0.14083
vn -0.267875 -0.890115 -0.368698
vn -0.557325 -0.31774 -0.767092
vn -0.901771 -0.31774 0.293003
vn 0.557325 -0.31774 -0.767092
vn -0.557325 -0.31774 -0.767092
vn -0.557325 0.31774 -0.767092
vn 0.557325 0.31774 -0.767092
vn 0.557325 -0.31774 -0.767092
vn 0.901771 -0.31774 0.293003
vn 0.901771 0.31774 0.293003
vn 0.557325 0.31774 -0.767092
vn 0.901771 -0.31774 0.293003
vn 0 -0.31774 0.948178
vn 0 0.31774 0.948178
vn 0.901771 0.31774 0.293003
vn 0 -0.31774 0.948178
vn -0.901771 -0.31774 0.293003
vn -0.901771 0.31774 0.293003
vn 0 0.31774 0.948178
vn -0.901771 -0.31774 0.293003
vn -0.557325 -0.31774 -0.767092
vn -0.557325 0.31774 -0.767092
vn -0.901771 0.31774 0.293003
vn 0.557325 0.31774 -0.767092
vn -0.557325 0.31774 -0.767092
vn -0.267875 0.890115 -0.368698
vn 0.267875 0.890115 -0.368698
vn 0.557325 0.31774 -0.767092
vn 0.901771 0.31774 0.293003
vn 0.43343 0.890115 0.14083
vn 0.267875 0.890115 -0.368698
vn 0.901771 0.31774 0.293003
vn 0 0.31774 0.948178
vn 0 0.890115 0.455736
vn 0.43343 0.890115 0.14083
vn 0 0.31774 0.948178
vn -0.901771 0.31774 0.293003
vn -0.43343 0.890115 0.14083
vn 0 0.890115 0.455736
vn -0.901771 0.31774 0.293003
vn -0.557325 0.31774 -0.767092
vn -0.267875 0.890115 -0.368698
vn -0.43343 0.890115 0.14083
vn -0.267875 0.890115 -0.368698
vn -0.43343 0.890115 0.14083
vn 0 0.890115 0.455736
vn 0.43343 0.890115 0.14083
vn 0.267875 0.890115 -0.368698

# face list

usemtl Green
g Object_Sphere_02
s 2
f 68/103/234 69/104/238 67/101/233
f 69/104/239 70/105/242 67/101/232
f 70/105/243 71/106/246 67/101/231
f 71/106/247 72/107/250 67/101/230
f 72/107/251 68/102/235 67/101/229
f 73/109/254 74/110/258 69/104/241 68/103/237
f 74/110/259 75/111/262 70/105/245 69/104/240
f 75/111/263 76/112/266 71/106/249 70/105/244
f 76/112/267 77/113/270 72/107/253 71/106/248
f 77/113/271 73/108/255 68/102/236 72/107/252
f 78/115/274 79/116/278 74/110/261 73/109/257
f 79/116/279 80/117/282 75/111/265 74/110/260
f 80/117/283 81/118/286 76/112/269 75/111/264
f 81/118/287 82/119/290 77/113/273 76/112/268
f 82/119/291 78/114/275 73/108/256 77/113/272
f 83/120/298 79/116/281 78/115/277
f 83/120/297 80/117/285 79/116/280
f 83/120/296 81/118/289 80/117/284
f 83/120/295 82/119/293 81/118/288
f 83/120/294 78/114/276 82/119/292

# End of file
